<svg xmlns="http://www.w3.org/2000/svg" xmlns:xlink="http://www.w3.org/1999/xlink" width="760" height="363.94"><rect width="760" height="363.94" rx="5" ry="5" class="a"/><svg y="0%" x="0%"><circle cx="20" cy="20" r="6" fill="#ff5f58"/><circle cx="40" cy="20" r="6" fill="#ffbd2e"/><circle cx="60" cy="20" r="6" fill="#18c132"/></svg><svg height="303.94" viewBox="0 0 72 30.394" width="720" x="15" xmlns="http://www.w3.org/2000/svg" xmlns:xlink="http://www.w3.org/1999/xlink" y="50"><style>@keyframes o{0%{transform:translateX(0)}.4%{transform:translateX(-72px)}7.5%{transform:translateX(-360px)}7.6%{transform:translateX(-792px)}7.9%{transform:translateX(-864px)}8%{transform:translateX(-936px)}8.1%{transform:translateX(-1008px)}9%{transform:translateX(-1152px)}10.9%{transform:translateX(-1224px)}13.3%{transform:translateX(-1368px)}15.2%{transform:translateX(-1512px)}20.6%{transform:translateX(-1656px)}27.2%{transform:translateX(-1728px)}27.3%{transform:translateX(-1800px)}28.9%{transform:translateX(-1944px)}45.8%{transform:translateX(-2016px)}53.5%{transform:translateX(-2232px)}53.6%{transform:translateX(-2448px)}53.7%{transform:translateX(-2880px)}63.3%{transform:translateX(-2952px)}63.4%{transform:translateX(-3024px)}63.7%{transform:translateX(-3096px)}68.9%{transform:translateX(-3168px)}69.2%{transform:translateX(-3240px)}70.2%{transform:translateX(-3384px)}75.2%{transform:translateX(-3456px)}75.3%{transform:translateX(-3528px)}83.3%{transform:translateX(-3672px)}83.6%{transform:translateX(-3888px)}83.7%{transform:translateX(-4104px)}84.3%{transform:translateX(-4320px)}84.6%{transform:translateX(-4464px)}84.8%{transform:translateX(-5112px)}99.5%{transform:translateX(-5184px)}}.a{fill:#282d35}.f{fill:#00afff;font-weight:700;white-space:pre}.g,.h,.i,.j,.k{fill:#5fd700;white-space:pre}.h,.i,.j,.k{fill:#dbab79}.i,.j,.k{fill:#6f7783}.j,.k{fill:#a8cc8c}.k{fill:#b9c0cb}.l{fill:#66c2cd}.l,.q,.r{white-space:pre}.q{fill:#b9c0cb;text-decoration:underline}.r{fill:#e88388;font-weight:700}</style><g font-family="Monaco,Consolas,Menlo,'Bitstream Vera Sans Mono','Powerline Symbols',monospace" font-size="1.67"><defs><symbol id="1"><text y="1.67" class="f">~</text><text x="2.004" y="1.67" class="g">&gt;</text></symbol><symbol id="2"><text y="1.67" class="f">~</text><text x="2.004" y="1.67" class="g">&gt;</text><text x="4.008" y="1.67" class="h">time</text><text x="9.018" y="1.67" class="i">rv</text><text x="12.024" y="1.67" class="i">ruby</text><text x="17.034" y="1.67" class="i">install</text><text x="25.05" y="1.67" class="i">3.4.7</text></symbol><symbol id="3"><text y="1.67" class="f">~</text><text x="2.004" y="1.67" class="g">&gt;</text><text x="4.008" y="1.67" class="h">time</text><text x="9.018" y="1.67" class="j">rv</text><text x="12.024" y="1.67" class="k">ruby</text><text x="17.034" y="1.67" class="k">install</text><text x="25.05" y="1.67" class="k">3.4.7</text></symbol><symbol id="4"><text y="1.67" class="k">Downloaded</text><text x="11.022" y="1.67" class="l">https://github.com/spinel-coop/rv-ruby/releases/latest/downlo</text></symbol><symbol id="5"><text y="1.67" class="l">ad/ruby-3.4.7.arm64_sonoma.tar.gz</text><text x="34.068" y="1.67" class="k">to</text><text x="37.074" y="1.67" class="l">/Users/andre/.cache/rv/ruby-v0/tarb</text></symbol><symbol id="6"><text y="1.67" class="l">alls/8758fed525bd3750.tar.gz</text></symbol><symbol id="7"><text y="1.67" class="k">Installed</text><text x="10.02" y="1.67" class="k">Ruby</text><text x="15.03" y="1.67" class="k">version</text><text x="23.046" y="1.67" class="l">ruby-3.4.7</text><text x="34.068" y="1.67" class="k">to</text><text x="37.074" y="1.67" class="l">/Users/andre/.local/share/rv/rubies</text></symbol><symbol id="8"><text y="1.67" class="k">rv</text><text x="3.006" y="1.67" class="k">ruby</text><text x="8.016" y="1.67" class="k">install</text><text x="16.032" y="1.67" class="k">3.4.7</text><text x="23.046" y="1.67" class="k">0.24s</text><text x="29.058" y="1.67" class="k">user</text><text x="34.068" y="1.67" class="k">0.49s</text><text x="40.08" y="1.67" class="k">system</text><text x="47.094" y="1.67" class="k">40%</text><text x="51.102" y="1.67" class="k">cpu</text><text x="55.11" y="1.67" class="k">1.811</text><text x="61.122" y="1.67" class="k">total</text></symbol><symbol id="9"><text y="1.67" class="f">~</text><text x="2.004" y="1.67" class="g">&gt;</text><text x="4.008" y="1.67" class="j">rv</text><text x="7.014" y="1.67" class="i">ruby</text><text x="12.024" y="1.67" class="i">run</text><text x="16.032" y="1.67" class="i">3.4.7</text><text x="22.044" y="1.67" class="i">--</text><text x="25.05" y="1.67" class="i">-e</text><text x="28.056" y="1.67" class="i">&apos;puts</text><text x="34.068" y="1.67" class="i">RUBY_DESCRIPTION&apos;</text></symbol><symbol id="10"><text y="1.67" class="f">~</text><text x="2.004" y="1.67" class="g">&gt;</text><text x="4.008" y="1.67" class="j">rv</text><text x="7.014" y="1.67" class="k">ruby</text><text x="12.024" y="1.67" class="k">run</text><text x="16.032" y="1.67" class="k">3.4.7</text><text x="22.044" y="1.67" class="k">--</text><text x="25.05" y="1.67" class="k">-e</text><text x="28.056" y="1.67" class="h">&apos;puts</text><text x="34.068" y="1.67" class="h">RUBY_DESCRIPTION&apos;</text></symbol><symbol id="11"><text y="1.67" class="k">⠁</text><text x="2.004" y="1.67" class="k">rubies{}</text></symbol><symbol id="12"><text x="2.004" y="1.67" class="k">↳</text><text x="4.008" y="1.67" class="k">⠁</text><text x="6.012" y="1.67" class="k">from_dir{dir=/Users/andre/.local/share/rv/rubies/ruby-3.4.7}</text></symbol><symbol id="13"><text y="1.67" class="k">ruby</text><text x="5.01" y="1.67" class="k">3.4.7</text><text x="11.022" y="1.67" class="k">(2025-10-08</text><text x="23.046" y="1.67" class="k">revision</text><text x="32.064" y="1.67" class="k">7a5688e2a2)</text><text x="44.088" y="1.67" class="k">+PRISM</text><text x="51.102" y="1.67" class="k">[arm64-darwin23]</text></symbol><symbol id="a"><path fill="transparent" d="M0 0h72v14H0z"/></symbol><symbol id="b"><path fill="#6f7683" d="M0 0h1.102v2.171H0z"/></symbol></defs><path class="a" d="M0 0h72v30.394H0z"/><g style="animation-duration:7.357918s;animation-iteration-count:infinite;animation-name:o;animation-timing-function:steps(1,end)"><svg width="5256"><svg><use xlink:href="#a"/><use xlink:href="#b" x="-.004"/></svg><svg x="72"><use xlink:href="#a"/><use xlink:href="#b" x="3.996"/><use xlink:href="#1"/></svg><svg x="144"><use xlink:href="#a"/><use xlink:href="#b" x="3.996"/><use xlink:href="#1"/></svg><svg x="216"><use xlink:href="#a"/><use xlink:href="#b" x="3.996"/><use xlink:href="#1"/></svg><svg x="288"><use xlink:href="#a"/><use xlink:href="#b" x="3.996"/><use xlink:href="#1"/></svg><svg x="360"><use xlink:href="#a"/><use xlink:href="#b" x="3.996"/><use xlink:href="#1"/></svg><svg x="432"><use xlink:href="#a"/><use xlink:href="#1"/></svg><svg x="504"><use xlink:href="#a"/></svg><svg x="576"><use xlink:href="#a"/><use xlink:href="#1"/></svg><svg x="648"><use xlink:href="#a"/><use xlink:href="#1"/></svg><svg x="720"><use xlink:href="#a"/><use xlink:href="#b" x="3.996"/><use xlink:href="#1"/></svg><svg x="792"><use xlink:href="#a"/><use xlink:href="#b" x="3.996"/><use xlink:href="#1"/></svg><svg x="864"><use xlink:href="#a"/><use xlink:href="#b" x="4.996"/><text y="1.67" class="f">~</text><text x="2.004" y="1.67" class="g">&gt;</text><text x="4.008" y="1.67" class="k">t</text></svg><svg x="936"><use xlink:href="#a"/><use xlink:href="#b" x="4.996"/><text y="1.67" class="f">~</text><text x="2.004" y="1.67" class="g">&gt;</text><text x="4.008" y="1.67" class="q">t</text></svg><svg x="1008"><use xlink:href="#a"/><use xlink:href="#b" x="4.996"/><text y="1.67" class="f">~</text><text x="2.004" y="1.67" class="g">&gt;</text><text x="4.008" y="1.67" class="q">t</text><text x="5.01" y="1.67" class="i">ime</text><text x="9.018" y="1.67" class="i">rv</text><text x="12.024" y="1.67" class="i">ruby</text><text x="17.034" y="1.67" class="i">install</text><text x="25.05" y="1.67" class="i">3.4.7</text></svg><svg x="1080"><use xlink:href="#a"/><use xlink:href="#b" x="5.996"/><text y="1.67" class="f">~</text><text x="2.004" y="1.67" class="g">&gt;</text><text x="4.008" y="1.67" class="q">ti</text><text x="6.012" y="1.67" class="i">me</text><text x="9.018" y="1.67" class="i">rv</text><text x="12.024" y="1.67" class="i">ruby</text><text x="17.034" y="1.67" class="i">install</text><text x="25.05" y="1.67" class="i">3.4.7</text></svg><svg x="1152"><use xlink:href="#a"/><use xlink:href="#b" x="5.996"/><text y="1.67" class="f">~</text><text x="2.004" y="1.67" class="g">&gt;</text><text x="4.008" y="1.67" class="r">ti</text><text x="6.012" y="1.67" class="i">me</text><text x="9.018" y="1.67" class="i">rv</text><text x="12.024" y="1.67" class="i">ruby</text><text x="17.034" y="1.67" class="i">install</text><text x="25.05" y="1.67" class="i">3.4.7</text></svg><svg x="1224"><use xlink:href="#a"/><use xlink:href="#b" x="6.996"/><text y="1.67" class="f">~</text><text x="2.004" y="1.67" class="g">&gt;</text><text x="4.008" y="1.67" class="r">tim</text><text x="7.014" y="1.67" class="i">e</text><text x="9.018" y="1.67" class="i">rv</text><text x="12.024" y="1.67" class="i">ruby</text><text x="17.034" y="1.67" class="i">install</text><text x="25.05" y="1.67" class="i">3.4.7</text></svg><svg x="1296"><use xlink:href="#a"/><use xlink:href="#b" x="7.996"/><text y="1.67" class="f">~</text><text x="2.004" y="1.67" class="g">&gt;</text><text x="4.008" y="1.67" class="r">time</text><text x="9.018" y="1.67" class="i">rv</text><text x="12.024" y="1.67" class="i">ruby</text><text x="17.034" y="1.67" class="i">install</text><text x="25.05" y="1.67" class="i">3.4.7</text></svg><svg x="1368"><use xlink:href="#a"/><use xlink:href="#b" x="7.996"/><use xlink:href="#2"/></svg><svg x="1440"><use xlink:href="#a"/><use xlink:href="#b" x="8.996"/><use xlink:href="#2"/></svg><svg x="1512"><use xlink:href="#a"/><use xlink:href="#b" x="8.996"/><use xlink:href="#2"/></svg><svg x="1584"><use xlink:href="#a"/><use xlink:href="#b" x="29.996"/><text y="1.67" class="f">~</text><text x="2.004" y="1.67" class="g">&gt;</text><text x="4.008" y="1.67" class="h">time</text><text x="9.018" y="1.67" class="k">rv</text><text x="12.024" y="1.67" class="k">ruby</text><text x="17.034" y="1.67" class="k">install</text><text x="25.05" y="1.67" class="k">3.4.7</text></svg><svg x="1656"><use xlink:href="#a"/><use xlink:href="#b" x="29.996"/><use xlink:href="#3"/></svg><svg x="1728"><use xlink:href="#a"/><use xlink:href="#b" x="29.996"/><use xlink:href="#3"/></svg><svg x="1800"><use xlink:href="#a"/><use xlink:href="#b" x="-.004" y="2.146"/><use xlink:href="#3"/></svg><svg x="1872"><use xlink:href="#a"/><use xlink:href="#b" x="-.004" y="2.146"/><use xlink:href="#3"/></svg><svg x="1944"><use xlink:href="#a"/><use xlink:href="#b" x="-.004" y="2.146"/><use xlink:href="#3"/></svg><svg x="2016"><use xlink:href="#a"/><use xlink:href="#b" x="-.004" y="8.659"/><use xlink:href="#3"/><use xlink:href="#4" y="2.171"/><use xlink:href="#5" y="4.342"/><use xlink:href="#6" y="6.513"/></svg><svg x="2088"><use xlink:href="#a"/><use xlink:href="#b" x="-.004" y="10.83"/><use xlink:href="#3"/><use xlink:href="#4" y="2.171"/><use xlink:href="#5" y="4.342"/><use xlink:href="#6" y="6.513"/><use xlink:href="#7" y="8.684"/></svg><svg x="2160"><use xlink:href="#a"/><use xlink:href="#b" x="-.004" y="13.001"/><use xlink:href="#3"/><use xlink:href="#4" y="2.171"/><use xlink:href="#5" y="4.342"/><use xlink:href="#6" y="6.513"/><use xlink:href="#7" y="8.684"/><use xlink:href="#8" y="10.855"/></svg><svg x="2232"><use xlink:href="#a"/><use xlink:href="#b" x="-.004" y="13.001"/><use xlink:href="#3"/><use xlink:href="#4" y="2.171"/><use xlink:href="#5" y="4.342"/><use xlink:href="#6" y="6.513"/><use xlink:href="#7" y="8.684"/><use xlink:href="#8" y="10.855"/></svg><svg x="2304"><use xlink:href="#a"/><use xlink:href="#b" x="-.004" y="13.001"/><use xlink:href="#3"/><use xlink:href="#4" y="2.171"/><use xlink:href="#5" y="4.342"/><use xlink:href="#6" y="6.513"/><use xlink:href="#7" y="8.684"/><use xlink:href="#8" y="10.855"/></svg><svg x="2376"><use xlink:href="#a"/><use xlink:href="#b" x="-.004" y="13.001"/><use xlink:href="#3"/><use xlink:href="#4" y="2.171"/><use xlink:href="#5" y="4.342"/><use xlink:href="#6" y="6.513"/><use xlink:href="#7" y="8.684"/><use xlink:href="#8" y="10.855"/></svg><svg x="2448"><use xlink:href="#a"/><use xlink:href="#b" x="-.004" y="13.001"/><use xlink:href="#3"/><use xlink:href="#4" y="2.171"/><use xlink:href="#5" y="4.342"/><use xlink:href="#6" y="6.513"/><use xlink:href="#7" y="8.684"/><use xlink:href="#8" y="10.855"/></svg><svg x="2520"><use xlink:href="#a"/><use xlink:href="#b" x="-.004" y="13.001"/><use xlink:href="#3"/><use xlink:href="#4" y="2.171"/><use xlink:href="#5" y="4.342"/><use xlink:href="#6" y="6.513"/><use xlink:href="#7" y="8.684"/><use xlink:href="#8" y="10.855"/></svg><svg x="2592"><use xlink:href="#a"/><use xlink:href="#b" x="-.004" y="13.001"/><use xlink:href="#3"/><use xlink:href="#4" y="2.171"/><use xlink:href="#5" y="4.342"/><use xlink:href="#6" y="6.513"/><use xlink:href="#7" y="8.684"/><use xlink:href="#8" y="10.855"/></svg><svg x="2664"><use xlink:href="#a"/><use xlink:href="#b" x="-.004" y="15.172"/><use xlink:href="#3"/><use xlink:href="#4" y="2.171"/><use xlink:href="#5" y="4.342"/><use xlink:href="#6" y="6.513"/><use xlink:href="#7" y="8.684"/><use xlink:href="#8" y="10.855"/></svg><svg x="2736"><use xlink:href="#a"/><use xlink:href="#b" x="3.996" y="15.172"/><use xlink:href="#3"/><use xlink:href="#4" y="2.171"/><use xlink:href="#5" y="4.342"/><use xlink:href="#6" y="6.513"/><use xlink:href="#7" y="8.684"/><use xlink:href="#8" y="10.855"/><use xlink:href="#1" y="15.197"/></svg><svg x="2808"><use xlink:href="#a"/><use xlink:href="#b" x="3.996" y="15.172"/><use xlink:href="#3"/><use xlink:href="#4" y="2.171"/><use xlink:href="#5" y="4.342"/><use xlink:href="#6" y="6.513"/><use xlink:href="#7" y="8.684"/><use xlink:href="#8" y="10.855"/><use xlink:href="#1" y="15.197"/></svg><svg x="2880"><use xlink:href="#a"/><use xlink:href="#b" x="3.996" y="15.172"/><use xlink:href="#3"/><use xlink:href="#4" y="2.171"/><use xlink:href="#5" y="4.342"/><use xlink:href="#6" y="6.513"/><use xlink:href="#7" y="8.684"/><use xlink:href="#8" y="10.855"/><use xlink:href="#1" y="15.197"/></svg><svg x="2952"><use xlink:href="#a"/><use xlink:href="#b" x="4.996" y="15.172"/><use xlink:href="#3"/><use xlink:href="#4" y="2.171"/><use xlink:href="#5" y="4.342"/><use xlink:href="#6" y="6.513"/><use xlink:href="#7" y="8.684"/><use xlink:href="#8" y="10.855"/><text y="16.867" class="f">~</text><text x="2.004" y="16.867" class="g">&gt;</text><text x="4.008" y="16.867" class="k">r</text></svg><svg x="3024"><use xlink:href="#a"/><use xlink:href="#b" x="4.996" y="15.172"/><use xlink:href="#3"/><use xlink:href="#4" y="2.171"/><use xlink:href="#5" y="4.342"/><use xlink:href="#6" y="6.513"/><use xlink:href="#7" y="8.684"/><use xlink:href="#8" y="10.855"/><text y="16.867" class="f">~</text><text x="2.004" y="16.867" class="g">&gt;</text><text x="4.008" y="16.867" class="j">r</text></svg><svg x="3096"><use xlink:href="#a"/><use xlink:href="#b" x="4.996" y="15.172"/><use xlink:href="#3"/><use xlink:href="#4" y="2.171"/><use xlink:href="#5" y="4.342"/><use xlink:href="#6" y="6.513"/><use xlink:href="#7" y="8.684"/><use xlink:href="#8" y="10.855"/><text y="16.867" class="f">~</text><text x="2.004" y="16.867" class="g">&gt;</text><text x="4.008" y="16.867" class="j">r</text><text x="5.01" y="16.867" class="i">m</text><text x="7.014" y="16.867" class="i">rv.cast</text></svg><svg x="3168"><use xlink:href="#a"/><use xlink:href="#b" x="5.996" y="15.172"/><use xlink:href="#3"/><use xlink:href="#4" y="2.171"/><use xlink:href="#5" y="4.342"/><use xlink:href="#6" y="6.513"/><use xlink:href="#7" y="8.684"/><use xlink:href="#8" y="10.855"/><text y="16.867" class="f">~</text><text x="2.004" y="16.867" class="g">&gt;</text><text x="4.008" y="16.867" class="j">rv</text></svg><svg x="3240"><use xlink:href="#a"/><use xlink:href="#b" x="5.996" y="15.172"/><use xlink:href="#3"/><use xlink:href="#4" y="2.171"/><use xlink:href="#5" y="4.342"/><use xlink:href="#6" y="6.513"/><use xlink:href="#7" y="8.684"/><use xlink:href="#8" y="10.855"/><use xlink:href="#9" y="15.197"/></svg><svg x="3312"><use xlink:href="#a"/><use xlink:href="#b" x="6.996" y="15.172"/><use xlink:href="#3"/><use xlink:href="#4" y="2.171"/><use xlink:href="#5" y="4.342"/><use xlink:href="#6" y="6.513"/><use xlink:href="#7" y="8.684"/><use xlink:href="#8" y="10.855"/><use xlink:href="#9" y="15.197"/></svg><svg x="3384"><use xlink:href="#a"/><use xlink:href="#b" x="6.996" y="15.172"/><use xlink:href="#3"/><use xlink:href="#4" y="2.171"/><use xlink:href="#5" y="4.342"/><use xlink:href="#6" y="6.513"/><use xlink:href="#7" y="8.684"/><use xlink:href="#8" y="10.855"/><use xlink:href="#9" y="15.197"/></svg><svg x="3456"><use xlink:href="#a"/><use xlink:href="#b" x="50.996" y="15.172"/><use xlink:href="#3"/><use xlink:href="#4" y="2.171"/><use xlink:href="#5" y="4.342"/><use xlink:href="#6" y="6.513"/><use xlink:href="#7" y="8.684"/><use xlink:href="#8" y="10.855"/><text y="16.867" class="f">~</text><text x="2.004" y="16.867" class="g">&gt;</text><text x="4.008" y="16.867" class="j">rv</text><text x="7.014" y="16.867" class="k">ruby</text><text x="12.024" y="16.867" class="k">run</text><text x="16.032" y="16.867" class="k">3.4.7</text><text x="22.044" y="16.867" class="k">--</text><text x="25.05" y="16.867" class="k">-e</text><text x="28.056" y="16.867" class="k">&apos;puts</text><text x="34.068" y="16.867" class="k">RUBY_DESCRIPTION&apos;</text></svg><svg x="3528"><use xlink:href="#a"/><use xlink:href="#b" x="50.996" y="15.172"/><use xlink:href="#3"/><use xlink:href="#4" y="2.171"/><use xlink:href="#5" y="4.342"/><use xlink:href="#6" y="6.513"/><use xlink:href="#7" y="8.684"/><use xlink:href="#8" y="10.855"/><use xlink:href="#10" y="15.197"/></svg><svg x="3600"><use xlink:href="#a"/><use xlink:href="#b" x="50.996" y="15.172"/><use xlink:href="#3"/><use xlink:href="#4" y="2.171"/><use xlink:href="#5" y="4.342"/><use xlink:href="#6" y="6.513"/><use xlink:href="#7" y="8.684"/><use xlink:href="#8" y="10.855"/><use xlink:href="#10" y="15.197"/></svg><svg x="3672"><use xlink:href="#a"/><use xlink:href="#b" x="-.004" y="17.343"/><use xlink:href="#3"/><use xlink:href="#4" y="2.171"/><use xlink:href="#5" y="4.342"/><use xlink:href="#6" y="6.513"/><use xlink:href="#7" y="8.684"/><use xlink:href="#8" y="10.855"/><use xlink:href="#10" y="15.197"/></svg><svg x="3744"><use xlink:href="#a"/><use xlink:href="#b" x="-.004" y="17.343"/><use xlink:href="#3"/><use xlink:href="#4" y="2.171"/><use xlink:href="#5" y="4.342"/><use xlink:href="#6" y="6.513"/><use xlink:href="#7" y="8.684"/><use xlink:href="#8" y="10.855"/><use xlink:href="#10" y="15.197"/></svg><svg x="3816"><use xlink:href="#a"/><use xlink:href="#b" x="-.004" y="17.343"/><use xlink:href="#3"/><use xlink:href="#4" y="2.171"/><use xlink:href="#5" y="4.342"/><use xlink:href="#6" y="6.513"/><use xlink:href="#7" y="8.684"/><use xlink:href="#8" y="10.855"/><use xlink:href="#10" y="15.197"/></svg><svg x="3888"><use xlink:href="#a"/><use xlink:href="#b" x="-.004" y="17.343"/><use xlink:href="#3"/><use xlink:href="#4" y="2.171"/><use xlink:href="#5" y="4.342"/><use xlink:href="#6" y="6.513"/><use xlink:href="#7" y="8.684"/><use xlink:href="#8" y="10.855"/><use xlink:href="#10" y="15.197"/></svg><svg x="3960"><use xlink:href="#a"/><use xlink:href="#b" x="71.996" y="17.343"/><use xlink:href="#3"/><use xlink:href="#4" y="2.171"/><use xlink:href="#5" y="4.342"/><use xlink:href="#6" y="6.513"/><use xlink:href="#7" y="8.684"/><use xlink:href="#8" y="10.855"/><use xlink:href="#10" y="15.197"/><use xlink:href="#11" y="17.368"/></svg><svg x="4032"><use xlink:href="#a"/><use xlink:href="#b" x="71.996" y="19.514"/><use xlink:href="#3"/><use xlink:href="#4" y="2.171"/><use xlink:href="#5" y="4.342"/><use xlink:href="#6" y="6.513"/><use xlink:href="#7" y="8.684"/><use xlink:href="#8" y="10.855"/><use xlink:href="#10" y="15.197"/><use xlink:href="#11" y="17.368"/><use xlink:href="#12" y="19.539"/></svg><svg x="4104"><use xlink:href="#a"/><use xlink:href="#b" x="71.996" y="21.685"/><use xlink:href="#3"/><use xlink:href="#4" y="2.171"/><use xlink:href="#5" y="4.342"/><use xlink:href="#6" y="6.513"/><use xlink:href="#7" y="8.684"/><use xlink:href="#8" y="10.855"/><use xlink:href="#10" y="15.197"/><use xlink:href="#11" y="17.368"/><use xlink:href="#12" y="19.539"/><text x="4.008" y="23.38" class="k">↳</text><text x="6.012" y="23.38" class="k">⠁</text><text x="8.016" y="23.38" class="k">extract_ruby_info{}</text></svg><svg x="4176"><use xlink:href="#a"/><use xlink:href="#b" x="71.996" y="19.514"/><use xlink:href="#3"/><use xlink:href="#4" y="2.171"/><use xlink:href="#5" y="4.342"/><use xlink:href="#6" y="6.513"/><use xlink:href="#7" y="8.684"/><use xlink:href="#8" y="10.855"/><use xlink:href="#10" y="15.197"/><use xlink:href="#11" y="17.368"/><use xlink:href="#12" y="19.539"/></svg><svg x="4248"><use xlink:href="#a"/><use xlink:href="#b" x="71.996" y="17.343"/><use xlink:href="#3"/><use xlink:href="#4" y="2.171"/><use xlink:href="#5" y="4.342"/><use xlink:href="#6" y="6.513"/><use xlink:href="#7" y="8.684"/><use xlink:href="#8" y="10.855"/><use xlink:href="#10" y="15.197"/><use xlink:href="#11" y="17.368"/></svg><svg x="4320"><use xlink:href="#a"/><use xlink:href="#b" x="-.004" y="17.343"/><use xlink:href="#3"/><use xlink:href="#4" y="2.171"/><use xlink:href="#5" y="4.342"/><use xlink:href="#6" y="6.513"/><use xlink:href="#7" y="8.684"/><use xlink:href="#8" y="10.855"/><use xlink:href="#10" y="15.197"/></svg><svg x="4392"><use xlink:href="#a"/><use xlink:href="#b" x="-.004" y="19.514"/><use xlink:href="#3"/><use xlink:href="#4" y="2.171"/><use xlink:href="#5" y="4.342"/><use xlink:href="#6" y="6.513"/><use xlink:href="#7" y="8.684"/><use xlink:href="#8" y="10.855"/><use xlink:href="#10" y="15.197"/><use xlink:href="#13" y="17.368"/></svg><svg x="4464"><use xlink:href="#a"/><use xlink:href="#b" x="-.004" y="19.514"/><use xlink:href="#3"/><use xlink:href="#4" y="2.171"/><use xlink:href="#5" y="4.342"/><use xlink:href="#6" y="6.513"/><use xlink:href="#7" y="8.684"/><use xlink:href="#8" y="10.855"/><use xlink:href="#10" y="15.197"/><use xlink:href="#13" y="17.368"/></svg><svg x="4536"><use xlink:href="#a"/><use xlink:href="#b" x="-.004" y="19.514"/><use xlink:href="#3"/><use xlink:href="#4" y="2.171"/><use xlink:href="#5" y="4.342"/><use xlink:href="#6" y="6.513"/><use xlink:href="#7" y="8.684"/><use xlink:href="#8" y="10.855"/><use xlink:href="#10" y="15.197"/><use xlink:href="#13" y="17.368"/></svg><svg x="4608"><use xlink:href="#a"/><use xlink:href="#b" x="-.004" y="19.514"/><use xlink:href="#3"/><use xlink:href="#4" y="2.171"/><use xlink:href="#5" y="4.342"/><use xlink:href="#6" y="6.513"/><use xlink:href="#7" y="8.684"/><use xlink:href="#8" y="10.855"/><use xlink:href="#10" y="15.197"/><use xlink:href="#13" y="17.368"/></svg><svg x="4680"><use xlink:href="#a"/><use xlink:href="#b" x="-.004" y="19.514"/><use xlink:href="#3"/><use xlink:href="#4" y="2.171"/><use xlink:href="#5" y="4.342"/><use xlink:href="#6" y="6.513"/><use xlink:href="#7" y="8.684"/><use xlink:href="#8" y="10.855"/><use xlink:href="#10" y="15.197"/><use xlink:href="#13" y="17.368"/></svg><svg x="4752"><use xlink:href="#a"/><use xlink:href="#b" x="-.004" y="19.514"/><use xlink:href="#3"/><use xlink:href="#4" y="2.171"/><use xlink:href="#5" y="4.342"/><use xlink:href="#6" y="6.513"/><use xlink:href="#7" y="8.684"/><use xlink:href="#8" y="10.855"/><use xlink:href="#10" y="15.197"/><use xlink:href="#13" y="17.368"/></svg><svg x="4824"><use xlink:href="#a"/><use xlink:href="#b" x="-.004" y="19.514"/><use xlink:href="#3"/><use xlink:href="#4" y="2.171"/><use xlink:href="#5" y="4.342"/><use xlink:href="#6" y="6.513"/><use xlink:href="#7" y="8.684"/><use xlink:href="#8" y="10.855"/><use xlink:href="#10" y="15.197"/><use xlink:href="#13" y="17.368"/></svg><svg x="4896"><use xlink:href="#a"/><use xlink:href="#b" x="-.004" y="21.685"/><use xlink:href="#3"/><use xlink:href="#4" y="2.171"/><use xlink:href="#5" y="4.342"/><use xlink:href="#6" y="6.513"/><use xlink:href="#7" y="8.684"/><use xlink:href="#8" y="10.855"/><use xlink:href="#10" y="15.197"/><use xlink:href="#13" y="17.368"/></svg><svg x="4968"><use xlink:href="#a"/><use xlink:href="#b" x="3.996" y="21.685"/><use xlink:href="#3"/><use xlink:href="#4" y="2.171"/><use xlink:href="#5" y="4.342"/><use xlink:href="#6" y="6.513"/><use xlink:href="#7" y="8.684"/><use xlink:href="#8" y="10.855"/><use xlink:href="#10" y="15.197"/><use xlink:href="#13" y="17.368"/><use xlink:href="#1" y="21.71"/></svg><svg x="5040"><use xlink:href="#a"/><use xlink:href="#b" x="3.996" y="21.685"/><use xlink:href="#3"/><use xlink:href="#4" y="2.171"/><use xlink:href="#5" y="4.342"/><use xlink:href="#6" y="6.513"/><use xlink:href="#7" y="8.684"/><use xlink:href="#8" y="10.855"/><use xlink:href="#10" y="15.197"/><use xlink:href="#13" y="17.368"/><use xlink:href="#1" y="21.71"/></svg><svg x="5112"><use xlink:href="#a"/><use xlink:href="#b" x="3.996" y="21.685"/><use xlink:href="#3"/><use xlink:href="#4" y="2.171"/><use xlink:href="#5" y="4.342"/><use xlink:href="#6" y="6.513"/><use xlink:href="#7" y="8.684"/><use xlink:href="#8" y="10.855"/><use xlink:href="#10" y="15.197"/><use xlink:href="#13" y="17.368"/><use xlink:href="#1" y="21.71"/></svg><svg x="5184"><use xlink:href="#a"/><use xlink:href="#b" x="-.004" y="23.856"/><use xlink:href="#3"/><use xlink:href="#4" y="2.171"/><use xlink:href="#5" y="4.342"/><use xlink:href="#6" y="6.513"/><use xlink:href="#7" y="8.684"/><use xlink:href="#8" y="10.855"/><use xlink:href="#10" y="15.197"/><use xlink:href="#13" y="17.368"/><use xlink:href="#1" y="21.71"/></svg></svg></g></g></svg></svg>